<?xml version="1.0" standalone="no"?>
<!DOCTYPE svg PUBLIC "-//W3C//DTD SVG 1.1//EN" "http://www.w3.org/Graphics/SVG/1.1/DTD/svg11.dtd" >
<svg xmlns="http://www.w3.org/2000/svg">
<metadata>Generated by IcoMoon</metadata>
<defs>
<font id="icomoon" horiz-adv-x="1024">
<font-face units-per-em="1024" ascent="960" descent="-64" />
<missing-glyph horiz-adv-x="1024" />
<glyph unicode="&#x20;" horiz-adv-x="512" d="" />
<glyph unicode="&#xe900;" glyph-name="rouble" d="M799.232 638.259c0 47.514-15.462 86.016-46.285 115.507-30.925 29.491-71.475 44.237-121.856 44.237h-228.147v-319.283h228.045c50.381 0 91.034 14.746 121.856 44.237 30.925 29.389 46.387 67.789 46.387 115.302zM968.192 638.259c0-91.75-30.106-166.502-90.112-224.461-60.211-57.958-137.728-86.938-232.755-86.938h-242.381v-84.070h359.936c6.656 0 12.083-2.15 16.384-6.451s6.451-9.728 6.451-16.384v-91.238c0-6.656-2.15-12.083-6.451-16.384s-9.728-6.451-16.384-6.451h-359.936v-136.806c0-6.656-2.253-12.083-6.758-16.384s-9.83-6.451-16.077-6.451h-118.989c-6.656 0-12.083 2.15-16.384 6.451s-6.451 9.728-6.451 16.384v136.806h-159.642c-6.656 0-12.083 2.15-16.384 6.451s-6.451 9.728-6.451 16.384v91.238c0 6.656 2.15 12.083 6.451 16.384s9.728 6.451 16.384 6.451h159.642v84.070h-159.642c-6.656 0-12.083 2.15-16.384 6.451s-6.451 9.728-6.451 16.384v106.189c0 6.144 2.15 11.571 6.451 16.077s9.728 6.758 16.384 6.758h159.642v448.307c0 6.656 2.15 12.083 6.451 16.384s9.728 6.451 16.384 6.451h384.205c95.027 0 172.646-28.979 232.755-86.938 60.006-58.061 90.112-132.915 90.112-224.666z" />
<glyph unicode="&#xe901;" glyph-name="star-stroke" d="M433.591 567.369c-11.070-27.176-37.274-45.987-67.874-46.007h-194.489l154.697-161.646c12.594-13.118 20.35-30.965 20.35-50.624 0-8.428-1.425-16.522-4.048-24.056l0.156 0.513-62.537-183.515 194.56 116.663c10.733 6.534 23.713 10.402 37.595 10.402s26.863-3.868 37.92-10.585l-0.325 0.183 208.311-124.928-54.638 195.73c-1.712 5.897-2.696 12.671-2.696 19.675 0 18.503 6.87 35.401 18.199 48.283l-0.070-0.082 143.872 163.986h-204.288c-30.603 0.020-56.807 18.831-67.7 45.518l-0.176 0.489-78.409 195.803-78.409-195.803zM512 960l146.286-365.495h365.714l-250.295-285.33 104.009-372.517-365.714 219.282-365.714-219.282 126.83 372.517-273.115 285.33h365.714l146.286 365.495z" />
<glyph unicode="&#xe902;" glyph-name="star-full" d="M512 960l146.286-365.495h365.714l-250.295-285.33 104.009-372.517-365.714 219.282-365.714-219.282 126.83 372.517-273.115 285.33h365.714z" />
<glyph unicode="&#xe903;" glyph-name="shopping-bag" horiz-adv-x="723" d="M569.464 718.095v33.069c-0.137 115.282-93.554 208.699-208.823 208.836h-0.013c-115.282-0.137-208.699-93.554-208.836-208.823v-33.082h-151.793v-606.208c0-72.704 59.031-131.735 131.735-131.735h457.788c72.644 0 131.674 59.031 131.674 131.735v606.208h-151.793zM203.234 564.375c-24.451 0-44.273 19.822-44.273 44.273s19.822 44.273 44.273 44.273v0c24.451 0 44.273-19.822 44.273-44.273s-19.822-44.273-44.273-44.273v0zM473.088 718.095h-224.919v33.069c0.068 62.115 50.404 112.451 112.513 112.52h0.007c62.115-0.068 112.451-50.404 112.52-112.513v-33.076zM518.024 564.375c-24.451 0-44.273 19.822-44.273 44.273s19.822 44.273 44.273 44.273v0c24.451 0 44.273-19.822 44.273-44.273s-19.822-44.273-44.273-44.273v0z" />
<glyph unicode="&#xe904;" glyph-name="pin" horiz-adv-x="805" d="M384-64c-119.442 0-384 371.2-384 640-0.002 0.479-0.003 1.046-0.003 1.613 0 211.189 171.202 382.391 382.391 382.391 0.567 0 1.134-0.001 1.7-0.004h-0.087c0.479 0.002 1.046 0.003 1.613 0.003 211.189 0 382.391-171.202 382.391-382.391 0-0.567-0.001-1.134-0.004-1.7v0.087c0-170.642-102.4-349.842-145.042-418.158-25.6-38.4-145.115-221.842-238.958-221.842zM384 362.642c0.634-0.007 1.382-0.011 2.132-0.011 116.663 0 211.237 94.574 211.237 211.237 0 0.749-0.004 1.498-0.012 2.246l0.001-0.114c0.007 0.634 0.011 1.382 0.011 2.132 0 116.663-94.574 211.237-211.237 211.237-0.749 0-1.498-0.004-2.246-0.012l0.114 0.001c-0.634 0.007-1.382 0.011-2.132 0.011-116.663 0-211.237-94.574-211.237-211.237 0-0.749 0.004-1.498 0.012-2.246l-0.001 0.114c-0.007-0.634-0.011-1.382-0.011-2.132 0-116.663 94.574-211.237 211.237-211.237 0.749 0 1.498 0.004 2.246 0.012l-0.114-0.001z" />
<glyph unicode="&#xe905;" glyph-name="phone" horiz-adv-x="1097" d="M1032.119 193.317v-154.112c0.001-0.153 0.001-0.334 0.001-0.514 0-56.716-45.977-102.693-102.693-102.693-3.348 0-6.659 0.16-9.926 0.474l0.416-0.032c-167.074 18.574-317.999 74.875-448.232 160.159l3.889-2.39c-125.127 80.192-228.434 183.335-306.42 304.337l-2.39 3.96c-83.311 126.59-139.759 277.942-157.656 440.895l-0.405 4.545c-0.277 2.828-0.435 6.113-0.435 9.436 0 56.675 45.944 102.619 102.619 102.619 0.050 0 0.1 0 0.15 0h154.47c0.329 0.004 0.718 0.006 1.107 0.006 51.704 0 94.502-38.129 101.811-87.803l0.068-0.559c6.583-49.371 18.578-97.792 36.059-144.384 14.117-37.595 5.12-79.945-23.186-108.471l-65.39-65.243c74.653-129.374 179.334-233.867 304.893-306.179l3.989-2.118 65.39 65.243c28.599 28.233 71.022 37.303 108.69 23.113 41.788-16.109 90.615-28.685 141.26-35.535l3.416-0.378c51.785-7.314 89.819-52.151 88.503-104.375z" />
<glyph unicode="&#xe906;" glyph-name="delivery" horiz-adv-x="1536" d="M1398.126 481.499l-208.677 27.575-120.174 208.677c-31.451 57.125-92.526 90.624-157.55 90.624h-228.425c-21.725-0.083-39.309-17.693-39.351-39.42v-454.806h-533.65c-21.731-0.041-39.341-17.626-39.424-39.343v-122.157c0.083-21.725 17.693-39.309 39.42-39.351h76.804c7.866-92.813 85.052-165.19 179.181-165.376h0.019c94.148 0.186 171.334 72.563 179.155 164.712l0.045 0.664h443.026c7.866-92.813 85.052-165.19 179.181-165.376h0.019c94.148 0.186 171.334 72.563 179.155 164.712l0.045 0.664h41.399c43.301 0 80.75 35.474 80.75 80.75v206.702c-1.258 40.801-31.312 74.221-70.459 80.683l-0.49 0.067zM366.299 30.501c-52.232 0-94.574 42.342-94.574 94.574v0c0 51.2 43.374 94.501 94.574 94.501 53.175 0 94.501-43.301 94.501-94.501s-43.301-94.574-94.501-94.574zM1041.701 514.926h-259.95c-4.209 0.328-7.538 3.683-7.825 7.873l-0.001 0.026v165.449c0 3.877 3.95 7.826 7.826 7.826h129.975c25.6 0 47.323-13.751 59.099-35.401l76.8-135.899c3.95-3.95 0-9.874-5.851-9.874zM1165.751 30.501c-52.2 0.042-94.501 42.368-94.501 94.574v0c0 51.2 43.301 94.501 94.501 94.501s94.574-43.301 94.574-94.501c0-51.2-41.399-94.574-94.574-94.574zM586.825 410.551v500.224c-0.083 21.699-17.651 39.268-39.343 39.351h-508.131c-21.699-0.083-39.268-17.651-39.351-39.343v-500.232c0.083-21.699 17.651-39.268 39.343-39.351h508.131c21.699 0.083 39.268 17.651 39.351 39.343v0.008z" />
<glyph unicode="&#xe907;" glyph-name="city" d="M1024 960l-398.19-1024-113.81 512-512 113.81z" />
<glyph unicode="&#xe908;" glyph-name="share" horiz-adv-x="1408" d="M888.384 820.672v-157.44l-24.128-6.080c-332.096-84.032-597.376-244.864-725.504-496.448 123.968 82.56 267.968 136.64 423.36 167.168 58.234 12.078 127.525 21.069 198.157 25.044l3.827 0.172c18.311 1.192 39.701 1.871 61.25 1.871 11.432 0 22.82-0.191 34.159-0.57l-1.649 0.044 30.528-1.408v-163.072l403.648 315.392-403.648 315.328zM824.384 712.96v238.912l571.584-446.528-571.584-446.592v232.448c-62.464 0.192-151.040-6.72-249.92-26.176-187.136-36.736-356.096-109.12-489.408-225.664l-87.296-76.352 35.84 110.272c107.84 332.48 406.272 537.152 790.72 639.68z" />
<glyph unicode="&#xe909;" glyph-name="cart" horiz-adv-x="1152" d="M941.12 571.392c-3.968 19.84-24.832 36.8-45.248 36.8h-639.744c-19.904 0-41.408-17.472-45.248-36.8l-103.040-514.56c-2.944-14.976 4.736-24.256 20.224-24.256h895.872c15.36 0 23.104 9.472 20.16 24.192l-102.976 514.624zM1024-31.36h-895.936c-55.68 0-93.888 46.080-82.944 100.8l103.040 514.56c9.856 49.408 57.664 88.256 107.968 88.256h639.744c50.752 0 98.048-38.4 108.032-88.256l102.976-514.56c10.88-54.4-27.264-100.8-82.944-100.8zM416 499.584h-64v204.544c0.037 123.649 100.282 223.872 223.936 223.872 0.023 0 0.045 0 0.068 0h-0.004c123.712 0 224-100.224 224-223.872v-204.544h-64v204.544c0 88.32-71.68 159.872-160 159.872s-160-71.552-160-159.872v-204.544z" />
<glyph unicode="&#xe90a;" glyph-name="eye-copy" horiz-adv-x="1390" d="M113.006 436.882c36.012-72.268 79.24-134.444 130.098-189.464l-0.489 0.536c117.029-126.391 264.046-201.655 444.928-201.655s327.973 75.264 444.928 201.655c50.37 54.485 93.598 116.662 127.514 184.315l2.095 4.613c-35.953 76.736-79.473 142.816-131.030 201.678l0.836-0.974c-117.102 133.266-263.973 212.699-444.343 212.699s-327.314-79.36-444.27-212.773c-50.718-57.869-94.236-123.923-128.009-195.481l-2.186-5.15zM687.543-26.843c-203.118 0-368.713 84.773-498.615 225.061-41.687 45.080-79.085 95.263-110.857 149.159l-2.222 4.076c-12.038 19.66-24.263 43.022-34.996 67.194l-1.576 3.974c-1.73 4.103-2.736 8.873-2.736 13.878 0 4.798 0.924 9.379 2.603 13.577l-0.087-0.246c1.609 4.169 4.681 11.41 9.216 21.285 38.875 82.015 85.642 152.645 140.895 215.648l-0.9-1.047c129.902 148.187 295.717 237.714 499.273 237.714s369.371-89.6 499.273-237.714c54.358-61.975 101.125-132.63 137.615-209.13l2.381-5.544c4.535-9.874 7.607-17.115 9.216-21.285 1.57-3.926 2.481-8.476 2.481-13.24 0-5.040-1.019-9.841-2.863-14.21l0.090 0.24c-12.284-28.151-24.486-51.514-38.062-73.953l1.564 2.785c-33.997-57.942-71.395-108.101-113.608-153.74l0.529 0.579c-129.902-140.288-295.497-225.061-498.615-225.061zM687.543 236.105c-117.122 0-212.073 94.925-212.114 212.037v0.004c0 117.147 94.967 212.114 212.114 212.114s212.114-94.967 212.114-212.114v0c-0.042-117.116-94.993-212.041-212.114-212.041v0zM687.543 309.248c76.726 0 138.93 62.178 138.971 138.894v0.004c0 76.752-62.22 138.971-138.971 138.971s-138.971-62.22-138.971-138.971v0c0.042-76.72 62.245-138.898 138.971-138.898 0 0 0 0 0 0v0z" />
<glyph unicode="&#xe90b;" glyph-name="rouble-sign" d="M394.581 187.221v-180.224h-114.688v180.224h-109.227v95.573h109.227v132.437h-109.227v95.573h109.227v449.195h379.563q128.341 0 196.608-73.728 69.632-73.728 69.632-199.339t-69.632-199.339q-68.267-72.363-196.608-72.363h-264.875v-132.437h375.467v-95.573zM394.581 510.805h264.875q68.267 0 105.131 35.499 38.229 35.499 38.229 101.035v75.093q0 65.536-38.229 101.035-36.864 35.499-105.131 35.499h-264.875z" />
<glyph unicode="&#xe90c;" glyph-name="chevron-right" horiz-adv-x="559" d="M13.649 15.492c-8.433-8.433-13.649-20.083-13.649-32.951 0-25.736 20.864-46.6 46.6-46.6 12.868 0 24.518 5.216 32.951 13.649l465.412 465.412c8.447 8.426 13.673 20.079 13.673 32.951s-5.226 24.525-13.672 32.95l-465.413 465.413c-8.433 8.433-20.083 13.649-32.951 13.649-25.736 0-46.6-20.864-46.6-46.6 0-12.868 5.216-24.518 13.649-32.951l432.554-432.461z" />
<glyph unicode="&#xe90d;" glyph-name="delete" d="M506.88 525.517l434.381 434.483 72.499-72.397-434.483-434.483 434.381-434.381-72.397-72.397-434.381 434.381-434.483-434.381-72.397 72.397 434.483 434.381-434.483 434.483 72.397 72.397z" />
<glyph unicode="&#xe90e;" glyph-name="youtube" horiz-adv-x="1472" d="M1377.728 872.128c-51.776 62.4-147.328 87.872-329.792 87.872h-662.336c-186.56 0-283.776-27.136-335.36-93.568-50.24-64.832-50.24-160.32-50.24-292.48v-251.904c0-256 59.648-386.048 385.6-386.048h662.4c158.208 0 245.888 22.464 302.592 77.568 58.24 56.512 83.008 148.736 83.008 308.48v251.904c0 139.392-3.84 235.456-55.872 298.176zM920.384 413.248l-300.8-159.552c-6.213-3.376-13.605-5.361-21.46-5.361-8.851 0-17.113 2.52-24.109 6.881l0.193-0.112c-13.458 8.448-22.272 23.208-22.272 40.027 0 0.058 0 0.116 0 0.174v-0.009 318.080c0 16.384 8.448 31.552 22.208 40.064 6.828 4.292 15.13 6.838 24.027 6.838 7.811 0 15.164-1.963 21.592-5.422l-0.243 0.12 300.8-158.528c15.232-8.064 24.832-24.064 24.896-41.6 0-17.472-9.6-33.536-24.832-41.6z" />
<glyph unicode="&#xe90f;" glyph-name="visa" horiz-adv-x="3277" d="M1318.093 960l-157.559-955.733h251.904l157.696 955.733zM941.875 959.795l-265.353-652.629-28.262 98.509c-52.292 118.784-200.841 289.246-375.194 396.766l242.551-798.174 286.652 0.478 426.53 955.255-286.925-0.205zM525.722 885.794c-15.292 55.637-59.597 72.158-114.62 74.206h-407.689l-3.413-18.227c317.303-72.909 527.292-248.491 614.4-459.639l-88.678 403.661zM2123.435 752.742c3.362 0.080 7.323 0.126 11.295 0.126 69.615 0 135.961-13.996 196.378-39.328l-3.351 1.246 24.644-11.469 36.932 215.040c-54.067 20.070-138.786 41.643-244.531 41.643-269.79 0-459.913-134.554-461.414-327.407-1.775-142.473 135.441-222.071 239.070-269.517 106.359-48.674 142.063-79.667 141.585-123.085-0.887-66.423-84.855-96.939-163.294-96.939-109.295 0-167.39 15.019-257.024 52.019l-35.157 15.838-38.434-222.071c63.898-27.716 181.794-51.61 304.196-52.838 286.925 0 473.429 132.983 475.409 339.012 1.161 112.708-71.68 198.724-229.376 269.312-95.573 46.080-153.941 76.663-153.395 123.085 0 41.301 49.562 85.333 156.467 85.333zM3061.419 960h-205.687c-63.829 0-111.343-17.067-139.401-79.394l-395.264-876.339h279.552s45.602 117.828 55.91 143.633l340.855-0.41c7.987-33.382 32.495-143.223 32.495-143.223h246.921l-215.381 955.733zM2733.124 343.552c21.914 54.955 106.086 267.264 106.086 267.264-1.434-2.594 21.709 55.296 35.499 91.341l17.886-82.466 61.713-276.139h-221.184z" />
<glyph unicode="&#xe910;" glyph-name="search" d="M736 544.256c-0.073 176.605-143.256 319.744-319.872 319.744-0.045 0-0.090 0-0.135 0h0.007c-176.704 0-320-143.168-320-319.744 0.037-176.633 143.234-319.808 319.872-319.808 0.045 0 0.090 0 0.135 0h-0.007c176.704 0 320 143.168 320 319.808zM800 544.256c-0.036-211.979-171.888-383.808-383.872-383.808-0.045 0-0.090 0-0.135 0h0.007c-212.032 0-384 171.84-384 383.808 0.073 211.952 171.91 383.744 383.872 383.744 0.045 0 0.090 0 0.135 0h-0.007c212.032 0 384-171.84 384-383.744zM982.592 23.232c6.046-5.83 9.8-14 9.8-23.047 0-17.673-14.327-32-32-32-9.016 0-17.16 3.728-22.977 9.727l-256.008 255.88c-6.369 5.868-10.346 14.25-10.346 23.56 0 17.673 14.327 32 32 32 9.295 0 17.664-3.963 23.51-10.291l0.020-0.022 256-255.808z" />
<glyph unicode="&#xe911;" glyph-name="pay-icon" horiz-adv-x="853" d="M361.496 920.454h438.808c9.314 0 16.872-7.558 16.872-16.872v-691.98c0-9.338-7.558-16.872-16.872-16.872h-383.122c20.805 35.137 33.099 77.444 33.099 122.621 0 14.232-1.22 28.179-3.561 41.742l0.207-1.45v0.488l132.413 146.383c11.898 13.897 18.432 31.549 18.432 49.835v2.633c-0.009 42.274-34.281 76.541-76.556 76.541-21.137 0-40.273-8.566-54.126-22.415l-122.465-122.49v414.964c0 9.314 7.558 16.872 16.872 16.872zM40.814 127.464c0 9.679 1.195 19.31 3.535 28.696l90.575 362.228c3.194 12.824 11.313 23.869 22.577 30.744l1.438 0.975 151.893 116.638v-211.87l-62.562-62.586 23.845-23.845 218.843 218.795c7.746 7.738 18.443 12.523 30.257 12.523 23.633 0 42.794-19.149 42.813-42.778v-2.635c0-10.069-3.535-19.822-9.996-27.502l-137.557-152.015c-2.695-2.982-4.344-6.953-4.344-11.31 0-0.913 0.072-1.809 0.212-2.683l-0.013 0.096 1.268-8.436c16.872-109.885-45.397-205.288-158.622-243.029l10.654-32.085c50.962 16.496 94.062 45.416 127.235 83.255l0.278 0.323h121.539l-63.537-90.77c-21.398-30.408-51.015-53.731-85.627-66.94l-1.267-0.425-76.215-28.574c-6.437-2.475-10.923-8.608-10.923-15.788 0-0.012 0-0.025 0-0.037v0.002-16.872h33.743v5.169l65.268 24.478c42.402 16.135 77.407 43.699 102.255 78.938l0.462 0.69 77.093 110.129h244.37c27.965 0 50.639 22.674 50.639 50.639v691.98c0 27.965-22.674 50.615-50.639 50.615h-438.808c-27.965 0-50.639-22.674-50.639-50.615v-194.219l-171.837-131.901c-18.153-11.521-31.408-29.368-36.739-50.376l-0.125-0.58-90.551-362.155c-2.881-11.066-4.535-23.769-4.535-36.859 0-0.010 0-0.020 0-0.031v0.001-185.905h33.743v185.905zM682.179 852.943c27.961 0 50.627-22.667 50.627-50.627s-22.667-50.627-50.627-50.627v0c-27.961 0-50.627 22.667-50.627 50.627s22.667 50.627 50.627 50.627v0zM682.179 667.282c-0.136-0.001-0.296-0.002-0.457-0.002-27.711 0-50.176 22.465-50.176 50.176 0 5.598 0.917 10.981 2.608 16.009l-0.103-0.354c13.395-9.52 30.084-15.22 48.104-15.22s34.709 5.7 48.362 15.394l-0.259-0.174c1.588-4.674 2.505-10.057 2.505-15.654 0-27.711-22.465-50.176-50.176-50.176-0.152 0-0.304 0.001-0.455 0.002h0.023zM682.155 633.539c0.046 0 0.101 0 0.156 0 46.522 0 84.236 37.714 84.236 84.236 0 15.721-4.306 30.436-11.804 43.029l0.213-0.387c7.2 11.982 11.5 26.421 11.605 41.857v0.030c0 46.61-37.785 84.395-84.395 84.395s-84.395-37.785-84.395-84.395v0c0.097-15.463 4.389-29.903 11.791-42.266l-0.211 0.379c-7.284-12.207-11.591-26.922-11.591-42.642 0-46.522 37.714-84.236 84.236-84.236 0.055 0 0.11 0 0.164 0h-0.008zM378.392 599.796h33.743v253.147h-33.768zM682.179 245.37h33.743v280.259h-33.768zM749.666 245.346h33.768v337.554h-33.768z" />
<glyph unicode="&#xe912;" glyph-name="mir" horiz-adv-x="3648" d="M2024.128 851.84l-229.376-496.896h-23.296v605.056h-325.76v-1024h276.48c72.576 0 138.56 42.24 169.024 108.16l229.376 496.896h23.296v-605.056h325.76v1024h-276.48c-72.64 0-138.624-42.24-169.024-108.16zM793.984 825.408l-134.912-470.528h-23.040l-134.912 470.528c-22.763 78.191-93.687 134.395-177.769 134.592h-323.351v-1024h323.712v605.12h23.168l184.96-605.12h231.36l184.96 605.12h23.104v-605.12h323.84v1024h-323.392c-82.368 0-154.88-54.912-177.728-134.592zM2599.552 506.688v-540.608h326.912v315.328h351.616c152.768 0 282.304 94.080 330.56 225.28h-1009.088zM3240.32 960h-710.4c43.136-239.872 248.448-421.632 495.552-421.632h551.68c4.48 22.72 6.848 46.208 6.848 70.272 0 194.048-153.92 351.36-343.68 351.36z" />
<glyph unicode="&#xe913;" glyph-name="menu" horiz-adv-x="1536" d="M0 960h1536v-170.667h-1536zM0 533.333h1536v-170.667h-1536zM0 106.667h1536v-170.667h-1536z" />
<glyph unicode="&#xe914;" glyph-name="mastercard" horiz-adv-x="1593" d="M1024 448c0-282.77-229.23-512-512-512s-512 229.23-512 512c0 282.77 229.23 512 512 512s512-229.23 512-512zM1080.889 49.778c219.932 0 398.222 178.29 398.222 398.222s-178.29 398.222-398.222 398.222v0c-219.932 0-398.222-178.29-398.222-398.222s178.29-398.222 398.222-398.222v0zM1080.889-64c-282.77 0-512 229.23-512 512s229.23 512 512 512v0c282.77 0 512-229.23 512-512s-229.23-512-512-512v0z" />
<glyph unicode="&#xe915;" glyph-name="login" horiz-adv-x="910" d="M591.929 729.714c0 80.040-64.885 144.924-144.924 144.924s-144.924-64.885-144.924-144.924v0c0-105.984 30.208-178.972 80.441-211.911 18.773-12.971 40.789-19.684 64.455-19.684 0.27-0.002 0.589-0.004 0.908-0.004 23.982 0 46.213 7.495 64.48 20.27l-0.364-0.241c49.664 32.597 79.929 105.586 79.929 211.627zM648.818 729.714c0-123.449-37.774-214.585-105.017-258.731-28.444-19.627-61.724-29.753-96.825-29.753-0.366-0.003-0.798-0.005-1.231-0.005-35.479 0-68.393 10.98-95.531 29.727l0.562-0.367c-67.868 44.544-105.586 135.68-105.586 259.129 0 111.458 90.355 201.813 201.813 201.813s201.813-90.355 201.813-201.813v0zM504.889 464.27l55.865 10.809c9.387-48.924 31.516-81.010 68.608-93.298 169.927-56.604 236.146-113.436 236.146-243.712 0-77.596-83.172-119.239-218.795-141.824-43.804-7.282-90.51-11.947-137.216-14.564-17.932-1.054-39.75-1.794-61.687-2.041l-0.834-0.007c-3.243 0-9.216 0-17.408 0.228-17.596 0.436-33.311 1.092-48.959 1.998l3.846-0.178c-51.084 2.685-98.285 7.882-144.64 15.582l7.424-1.019c-135.623 22.585-218.795 64.228-218.795 141.824 0 130.276 66.276 187.108 236.26 243.769 36.978 12.231 59.108 44.373 68.551 93.241l55.865-10.809c-12.971-67.186-47.161-116.793-106.496-136.42-149.276-49.778-197.291-90.908-197.291-189.781 0-36.124 63.090-67.698 171.236-85.675 41.529-6.94 86.3-11.378 131.015-13.881 16.963-1.008 37.686-1.727 58.521-1.983l0.871-0.008c2.844 0 8.306 0 16.1 0.228 13.084 0.284 27.591 0.853 43.236 1.707 48.811 2.579 93.897 7.552 138.175 14.913l-7.103-0.975c108.146 18.034 171.236 49.55 171.236 85.675 0 98.873-48.014 140.004-197.177 189.724-59.449 19.684-93.582 69.291-106.553 136.533z" />
<glyph unicode="&#xe916;" glyph-name="heart-stroke" horiz-adv-x="1097" d="M577.536 876.178c52.078 52.005 115.712 83.822 190.464 83.822 207.945 0 329.143-184.027 329.143-372.443 0-187.246-93.403-350.866-246.93-483.474-107.959-93.257-249.783-168.082-301.641-168.082s-193.609 74.825-301.568 168.082c-153.6 132.535-247.003 296.229-247.003 483.474 0 188.416 121.198 372.443 329.143 372.443 74.752 0 138.386-31.817 190.464-83.822 10.971-10.971 20.626-21.943 28.965-32.549 9.459 11.888 18.936 22.5 28.97 32.554l-0.006-0.006zM1024 587.557c0 152.869-96.475 299.301-256 299.301-53.248 0-99.328-23.040-138.679-62.464-18.366-18.467-34.309-39.372-47.293-62.181l-0.762-1.453c-6.144-12.065-18.471-20.185-32.695-20.185s-26.551 8.12-32.599 19.978l-0.096 0.207c-13.725 24.262-29.644 45.167-47.999 63.651l0.017-0.017c-39.497 39.424-85.65 62.464-138.752 62.464-159.525 0-256-146.432-256-299.301 0-163.109 82.798-308.224 221.623-428.178 95.89-82.798 223.817-150.235 253.806-150.235 30.062 0 157.989 67.438 253.806 150.235 138.825 119.954 221.623 264.997 221.623 428.178z" />
<glyph unicode="&#xe917;" glyph-name="google" horiz-adv-x="1792" d="M512 550.4v-204.8h289.664c-43.609-120.232-156.758-204.613-289.641-204.8h-0.023c-169.574 0.218-306.982 137.626-307.2 307.179v0.021c0 169.344 137.856 307.2 307.2 307.2 73.408 0 144.064-26.304 198.976-74.112l134.528 154.368c-88.589 77.366-205.274 124.544-332.978 124.544-0.185 0-0.37 0-0.555 0h0.029c-282.304 0-512-229.696-512-512s229.696-512 512-512 512 229.696 512 512v102.4h-512zM1216 435.2v128h537.6v-128zM1420.8 768h128v-537.6h-128z" />
<glyph unicode="&#xe918;" glyph-name="facebook" horiz-adv-x="576" d="M563.2 960h-153.6c-141.385 0-256-114.615-256-256v0-153.6h-153.6v-204.8h153.6v-409.6h204.8v409.6h153.6l51.2 204.8h-204.8v153.6c0 28.277 22.923 51.2 51.2 51.2h153.6v204.8z" />
<glyph unicode="&#xe919;" glyph-name="delivery-icon" horiz-adv-x="1195" d="M250.563 58.1c-0.007 0-0.016 0-0.024 0-7.217 0-13.068 5.851-13.068 13.068s5.851 13.068 13.068 13.068c7.217 0 13.068-5.851 13.068-13.068 0-0.009 0-0.017 0-0.026v0.001c0-7.168-5.851-13.044-13.044-13.044zM250.563 121.1c-27.55 0-49.957-22.406-49.957-49.957s22.406-49.981 49.957-49.981 49.932 22.43 49.932 49.981-22.406 49.981-49.932 49.981zM959.22 191.976c-61.935-0.085-112.952-46.717-119.95-106.785l-0.053-0.564c-86.309-0.244-172.642-0.634-257.487-0.975-69.583-0.317-140.19-0.634-210.968-0.853-6.18 61.483-57.616 109.093-120.189 109.178h-0.009c-62.77-0.087-114.327-47.984-120.209-109.224l-0.038-0.49-41.984-0.073c-24.636 0.014-44.603 19.981-44.617 44.616v19.75h86.967v36.913h-86.967v396.581c0 24.381 20.090 44.373 44.739 44.593l379.319 2.853c153.502 0 288.183-63.025 389.534-182.248 26.129-30.497 58.022-55.231 94.095-72.684l1.723-0.752c25.066-71.912 92.292-122.587 171.353-122.587 0.033 0 0.066 0 0.099 0h-0.005c0.975 0 1.95 0.146 2.901 0.146 5.193-14.882 8.192-32.038 8.192-49.894 0-0.005 0-0.010 0-0.014v0.001-15.994h-58.319v-36.888h58.319v-1.195c-0.098-31.887-24.965-57.936-56.365-59.92l-0.174-0.009c-7.449 60.238-58.269 106.424-119.896 106.52h-0.010zM959.22-12.751c-46.316 0.055-83.85 37.58-83.919 83.888v0.007c0.069 46.319 37.6 83.85 83.913 83.919h0.007c46.325-0.055 83.864-37.594 83.919-83.914v-0.005c-0.069-46.315-37.603-83.839-83.914-83.895h-0.005zM322.536-25.649c23.047 17.244 39.594 42.071 45.978 70.728l0.151 0.806c71.509 0.244 142.897 0.536 213.211 0.853 85.309 0.341 172.081 0.731 258.853 0.975 6.19-30.225 22.955-55.76 46.179-73.136l0.316-0.226h-564.663zM250.563-12.751c-46.316 0.055-83.85 37.58-83.919 83.888v0.007c0.055 46.325 37.594 83.864 83.914 83.919h0.005c46.304-0.083 83.815-37.611 83.87-83.914v-0.005c-0.069-46.297-37.575-83.812-83.862-83.895h-0.008zM1014.053 350.647c39.524-8.71 72.61-31.637 94.336-63.025l0.335-0.512c-45.070 4.875-83.399 30.051-106.099 66.066l-0.348 0.591c3.95-1.024 7.802-2.243 11.776-3.121zM1077.809 48.299c52.571 1.427 94.654 44.339 94.744 97.101v54.086c0.002 0.294 0.003 0.642 0.003 0.99 0 91.058-63.892 167.194-149.292 186.022l-1.263 0.234c-55.045 12.591-101.913 41.844-136.293 82.085l-0.289 0.347c-108.593 127.756-253.001 195.243-417.646 195.243l-379.611-2.853c-44.812-0.341-81.335-36.913-81.335-81.506v-453.242c0-44.934 36.571-81.506 81.506-81.506 14.629 0 29.477 0 44.276 0.049 6.612-29.233 23.075-53.854 45.644-70.772l0.314-0.225h-172.13l0.024-36.913h1070.885v36.913h-46.129c23.686 17.719 40.508 43.483 46.439 73.177l0.128 0.77zM959.22 58.1c-0.007 0-0.016 0-0.024 0-7.217 0-13.068 5.851-13.068 13.068s5.851 13.068 13.068 13.068c7.217 0 13.068-5.851 13.068-13.068 0-0.009 0-0.017 0-0.026v0.001c0-7.168-5.851-13.044-13.044-13.044zM959.22 121.1c-27.55 0-49.957-22.406-49.957-49.957s22.43-49.981 49.957-49.981c27.55 0 49.957 22.43 49.957 49.981s-22.43 49.981-49.957 49.981zM378.319 146.578h452.462v36.913h-452.462zM597.016 589.507h-36.913v-221.208h317.684v36.913h-280.795zM781.263 822.516c4.753 51.079 47.314 90.778 99.187 90.965h0.019c52.829-0.076 96.033-41.181 99.458-93.153l0.016-0.299 36.815 2.316c-1.037 15.77-4.614 30.432-10.33 43.971l0.333-0.89c2.511 0.366 4.998 0.805 7.558 0.805 20.724 0 38.814-12.239 47.275-30.159v-32.841h101.376v36.913h-63.317c-11.644 36.754-45.422 62.937-85.326 63h-0.008c-9.338 0-18.456-1.463-27.282-4.315-25.146 31.489-63.514 51.505-106.559 51.566h-0.010c-65.634 0-121.442-47.275-133.851-110.251h-100.376v-36.913h135.022v19.285zM104.887 755.102c5.67 26.876 28.545 46.981 56.348 48.366l0.143 0.006c0.146-5.413 0.658-10.85 1.707-16.213l36.23 7.168c-0.741 3.548-1.165 7.625-1.165 11.8 0 33.299 26.972 60.298 60.26 60.343h0.004c22.114 0 41.594-11.8 52.102-29.915-19.998-5.749-36.824-17.198-49.104-32.459l-0.145-0.187 28.818-23.040c11.083 13.839 27.979 22.626 46.927 22.626 0.054 0 0.107 0 0.161 0h-0.008c33.278-0.042 60.242-27.014 60.27-60.291v-0.003h0.073v-18.456h100.571v36.937h-65.512c-8.213 40.902-41.183 72.182-82.319 77.768l-0.503 0.056c-13.862 37.572-49.363 63.879-91.007 63.879-0.105 0-0.21 0-0.316-0.001h0.016c-41.43-0.088-76.771-26.061-90.717-62.601l-0.224-0.667c-1.195 0.049-2.365 0.268-3.535 0.268-47.121-0.051-86.396-33.58-95.323-78.080l-0.104-0.622h-49.786v-36.913h86.138v30.232z" />
<glyph unicode="&#xe91a;" glyph-name="brands-icon" horiz-adv-x="1000" d="M866.694 913.944h-276.187c-9.87 0-17.871-8.001-17.871-17.871s8.001-17.871 17.871-17.871v0h276.187c35.986 0 74.118-38.156 74.118-74.118v-230.156c0-44.495 0-64.756-9.63-84.066-10.24-20.407-32.597-42.764-77.19-87.381l-414.232-414.062c-31.354-31.354-61.050-5.461-66.658 0l-322.146 321.975c-5.486 5.681-31.451 35.426-0.073 66.755l35.718 35.767 378.49 378.441c3.265 3.235 5.286 7.721 5.286 12.678s-2.021 9.443-5.285 12.677l-0.001 0.001c-3.238 3.259-7.723 5.276-12.678 5.276s-9.44-2.017-12.677-5.275l-0.001-0.001c-14.434-14.507-279.869-279.918-378.392-378.49l-35.645-35.718c-23.698-23.576-31.256-52.517-21.626-81.579 6.802-20.626 20.066-34.328 21.626-35.742l322.097-322.121c1.438-1.536 15.019-14.702 35.742-21.602 8.216-2.755 16.335-4.072 24.43-4.072 20.48 0 40.253 8.655 57.125 25.673l414.184 414.086c93.623 93.623 97.28 97.378 97.28 196.779v230.156c0 55.467-54.37 109.836-109.861 109.836zM728.576 591.848c-40.903 0.055-74.049 33.192-74.118 74.087v0.007c0 0.007 0 0.016 0 0.025 0 9.89-7.989 17.913-17.866 17.968h-0.005c-9.879-0.042-17.871-8.060-17.871-17.944 0-0.017 0-0.034 0-0.052v0.003c0.056-60.652 49.209-109.805 109.855-109.861h0.005c60.666 0.069 109.833 49.202 109.958 109.849v0.012c-0.083 60.695-49.263 109.875-109.95 109.958h-0.008c-9.87 0-17.871-8.001-17.871-17.871s8.001-17.871 17.871-17.871v0c40.935-0.083 74.090-33.273 74.118-74.213v-0.003c-0.069-40.906-33.212-74.049-74.111-74.118h-0.007zM176.323 602.063c0.001 0 0.002 0 0.003 0 9.91 0 17.944 8.034 17.944 17.944 0 1.515-0.188 2.985-0.541 4.39l0.026-0.124c-27.77 110.763-20.651 203.581 19.261 254.83 23.503 29.891 57.49 45.105 101.327 45.105 107.227 0 326.29-195.535 401.579-270.872 3.245-3.245 7.727-5.251 12.678-5.251 9.902 0 17.93 8.027 17.93 17.93 0 4.951-2.007 9.433-5.251 12.678v0c-11.532 11.459-283.087 281.307-426.935 281.307-54.613 0-99.474-20.382-129.487-58.88-47.47-60.855-56.686-162.28-25.893-285.501 1.975-8.119 9.338-13.556 17.335-13.556zM567.101 334.946l-169.594 169.57 25.21 25.186 169.57-169.545zM506.368 274.213l-169.57 169.57 25.21 25.21 169.57-169.57z" />
<glyph unicode="&#xe91b;" glyph-name="instagram" d="M512 861.058c134.532 0 150.466-0.514 203.6-2.938 49.124-2.242 75.8-10.448 93.556-17.348 22.718-8.527 42.068-21.369 57.897-37.653l0.035-0.037c16.321-15.864 29.163-35.214 37.334-56.858l0.356-1.074c6.9-17.754 15.108-44.432 17.348-93.556 2.424-53.13 2.938-69.064 2.938-203.6s-0.514-150.466-2.938-203.6c-2.242-49.124-10.45-75.8-17.348-93.556-17.325-44.070-51.552-78.297-94.491-95.229l-1.131-0.393c-17.754-6.9-44.432-15.108-93.556-17.348-53.12-2.424-69.054-2.938-203.6-2.938s-150.474 0.514-203.6 2.938c-49.124 2.242-75.8 10.45-93.556 17.348-22.718 8.527-42.068 21.369-57.896 37.653l-0.036 0.037c-16.321 15.864-29.163 35.214-37.334 56.857l-0.356 1.075c-6.9 17.754-15.108 44.432-17.348 93.556-2.424 53.128-2.938 69.064-2.938 203.6s0.514 150.466 2.938 203.6c2.242 49.124 10.448 75.8 17.348 93.556 8.528 22.719 21.371 42.070 37.657 57.898l0.037 0.036c15.864 16.321 35.214 29.163 56.857 37.334l1.075 0.356c17.754 6.9 44.432 15.108 93.556 17.348 53.13 2.424 69.064 2.938 203.6 2.938zM512.004 951.842c-136.836 0-154-0.58-207.732-3.032-53.63-2.448-90.254-10.964-122.302-23.42-34.923-13.361-64.693-33.128-89.205-58.078l-0.035-0.036c-24.993-24.546-44.765-54.316-57.558-87.551l-0.572-1.689c-12.446-32.050-20.962-68.674-23.4-122.304-2.462-53.732-3.042-70.896-3.042-207.732s0.58-154 3.042-207.732c2.448-53.63 10.964-90.254 23.42-122.302 13.361-34.923 33.128-64.693 58.078-89.205l0.036-0.035c24.547-24.986 54.317-44.753 87.55-57.542l1.69-0.572c32.050-12.456 68.674-20.972 122.302-23.42 53.74-2.452 70.898-3.032 207.732-3.032s154 0.58 207.732 3.032c53.63 2.448 90.254 10.964 122.302 23.42 67.877 26.753 120.601 79.477 146.746 145.609l0.608 1.745c12.456 32.050 20.972 68.674 23.42 122.302 2.452 53.74 3.032 70.898 3.032 207.732s-0.58 154-3.032 207.732c-2.448 53.63-10.964 90.254-23.42 122.302-13.361 34.923-33.128 64.693-58.078 89.205l-0.036 0.035c-24.548 24.992-54.32 44.763-87.557 57.554l-1.689 0.572c-32.050 12.446-68.674 20.962-122.304 23.4-53.732 2.462-70.896 3.042-207.732 3.042v0zM512 706.73c-142.893 0-258.73-115.837-258.73-258.73s115.837-258.73 258.73-258.73c142.893 0 258.73 115.837 258.73 258.73v0c0 142.893-115.837 258.73-258.73 258.73v0zM512 280.054c-92.753 0.001-167.944 75.193-167.944 167.946s75.192 167.946 167.946 167.946c92.754 0 167.946-75.192 167.946-167.946v0c-0.001-92.754-75.194-167.946-167.948-167.946v0zM841.412 716.952c0-33.391-27.069-60.46-60.46-60.46s-60.46 27.069-60.46 60.46c0 33.391 27.069 60.46 60.46 60.46s60.46-27.069 60.46-60.46z" />
<glyph unicode="&#xe91c;" glyph-name="chevron-left" horiz-adv-x="559" d="M544.988 880.449c8.433 8.433 13.649 20.083 13.649 32.951 0 25.736-20.864 46.6-46.6 46.6-12.868 0-24.518-5.216-32.951-13.649l-465.412-465.412c-8.447-8.426-13.673-20.079-13.673-32.951s5.226-24.525 13.672-32.95l465.413-465.413c8.433-8.433 20.083-13.649 32.951-13.649 25.736 0 46.6 20.864 46.6 46.6 0 12.868-5.216 24.518-13.649 32.951v0l-432.554 432.461z" />
<glyph unicode="&#xe91d;" glyph-name="chevron-down" d="M79.5 713.706c-8.434 8.434-20.085 13.65-32.954 13.65-25.739 0-46.604-20.865-46.604-46.604 0-12.869 5.216-24.52 13.65-32.954l465.455-465.455c8.427-8.448 20.080-13.674 32.954-13.674s24.527 5.227 32.953 13.674l465.456 465.456c8.434 8.434 13.65 20.085 13.65 32.954 0 25.739-20.865 46.604-46.604 46.604-12.869 0-24.52-5.216-32.954-13.65l-432.5-432.593z" />
<glyph unicode="&#xe91e;" glyph-name="arrow-right" d="M56.889 392.772c-31.419 0-56.889 25.47-56.889 56.889s25.47 56.889 56.889 56.889v0h910.222c31.419 0 56.889-25.47 56.889-56.889s-25.47-56.889-56.889-56.889v0zM779.15 181.942c-10.432-11.323-25.333-18.392-41.885-18.392-31.419 0-56.889 25.47-56.889 56.889 0 16.524 7.045 31.402 18.295 41.796l0.038 0.035 227.442 227.556c10.432 11.323 25.333 18.392 41.885 18.392 31.419 0 56.889-25.47 56.889-56.889 0-16.524-7.045-31.402-18.295-41.796l-0.038-0.035zM1006.592 489.825c9.301-10.095 15.004-23.63 15.004-38.496 0-31.419-25.47-56.889-56.889-56.889-14.895 0-28.453 5.724-38.594 15.093l0.038-0.035-227.442 227.556c-9.301 10.095-15.004 23.63-15.004 38.496 0 31.419 25.47 56.889 56.889 56.889 14.895 0 28.453-5.724 38.594-15.093l-0.038 0.035 227.556-227.556z" />
<glyph unicode="&#xe91f;" glyph-name="arrow-left" d="M968.033 503.216c31.419 0 56.889-25.47 56.889-56.889s-25.47-56.889-56.889-56.889v0h-910.222c-31.419 0-56.889 25.47-56.889 56.889s25.47 56.889 56.889 56.889v0zM245.771 714.047c10.432 11.323 25.333 18.392 41.885 18.392 31.419 0 56.889-25.47 56.889-56.889 0-16.524-7.045-31.402-18.295-41.796l-0.038-0.035-227.442-227.556c-10.432-11.323-25.333-18.392-41.885-18.392-31.419 0-56.889 25.47-56.889 56.889 0 16.524 7.045 31.402 18.295 41.796l0.038 0.035zM18.33 406.164c-9.301 10.095-15.004 23.63-15.004 38.496 0 31.419 25.47 56.889 56.889 56.889 14.895 0 28.453-5.724 38.594-15.093l-0.038 0.035 227.442-227.556c9.301-10.095 15.004-23.63 15.004-38.496 0-31.419-25.47-56.889-56.889-56.889-14.895 0-28.453 5.724-38.594 15.093l0.038-0.035-227.556 227.556z" />
<glyph unicode="&#xe920;" glyph-name="arrow-down" d="M456.778 903.111c0 31.419 25.47 56.889 56.889 56.889s56.889-25.47 56.889-56.889v0-910.222c0-31.419-25.47-56.889-56.889-56.889s-56.889 25.47-56.889 56.889v0zM245.948 180.85c-11.323 10.432-18.392 25.333-18.392 41.885 0 31.419 25.47 56.889 56.889 56.889 16.524 0 31.402-7.045 41.796-18.295l0.035-0.038 227.556-227.442c11.323-10.432 18.392-25.333 18.392-41.885 0-31.419-25.47-56.889-56.889-56.889-16.524 0-31.402 7.045-41.796 18.295l-0.035 0.038zM553.83-46.592c-10.095-9.301-23.63-15.004-38.496-15.004-31.419 0-56.889 25.47-56.889 56.889 0 14.895 5.724 28.453 15.093 38.594l-0.035-0.038 227.556 227.442c10.095 9.301 23.63 15.004 38.496 15.004 31.419 0 56.889-25.47 56.889-56.889 0-14.895-5.724-28.453-15.093-38.594l0.035 0.038-227.556-227.556z" />
<glyph unicode="&#xe921;" glyph-name="arrow-up" d="M560.189 37.56c0-28.277-22.923-51.2-51.2-51.2s-51.2 22.923-51.2 51.2v0 819.2c0 28.277 22.923 51.2 51.2 51.2s51.2-22.923 51.2-51.2v0zM749.937 687.596c10.191-9.389 16.553-22.8 16.553-37.697 0-28.277-22.923-51.2-51.2-51.2-14.871 0-28.262 6.34-37.616 16.465l-0.031 0.034-204.8 204.698c-10.191 9.389-16.553 22.8-16.553 37.697 0 28.277 22.923 51.2 51.2 51.2 14.871 0 28.262-6.34 37.616-16.465l0.031-0.034zM472.842 892.293c9.086 8.371 21.267 13.503 34.647 13.503 28.277 0 51.2-22.923 51.2-51.2 0-13.406-5.152-25.608-13.584-34.735l0.031 0.034-204.8-204.698c-9.086-8.371-21.267-13.503-34.647-13.503-28.277 0-51.2 22.923-51.2 51.2 0 13.406 5.152 25.608 13.584 34.735l-0.031-0.034 204.8 204.8z" />
<glyph unicode="&#xe922;" glyph-name="chevron-up" d="M944.5 182.319c8.434-8.434 20.085-13.65 32.954-13.65 25.739 0 46.604 20.865 46.604 46.604 0 12.869-5.216 24.52-13.65 32.954v0l-465.455 465.455c-8.427 8.448-20.080 13.674-32.954 13.674s-24.527-5.227-32.953-13.674l-465.456-465.456c-8.434-8.434-13.65-20.085-13.65-32.954 0-25.739 20.865-46.604 46.604-46.604 12.869 0 24.52 5.216 32.954 13.65l432.5 432.593 432.5-432.593z" />
<glyph unicode="&#xe923;" glyph-name="heart-fill" horiz-adv-x="1103" d="M1102.769 598.292c0 125.401-78.769 361.708-315.077 361.708-157.538 0-236.308-157.538-236.308-157.538s-78.769 157.538-236.308 157.538c-236.308 0-315.077-236.308-315.077-361.708 0-425.984 489.078-662.292 551.385-662.292 62.385 0 551.385 236.308 551.385 662.292z" />
<glyph unicode="&#xe924;" glyph-name="pay-online" horiz-adv-x="1347" d="M1236.345 817.718c-12.568 12.65-29.975 20.48-49.211 20.48-0.074 0-0.148 0-0.222 0h-1026.468c-38.535 0-69.848-31.313-69.848-69.848v-93.238h1166.174v93.238c0 18.648-7.276 36.163-20.48 49.368zM90.543 606.72v-163.139h1166.174v163.139h-1166.174zM90.543 375.242v-247.592c0-18.648 7.276-36.109 20.48-49.368 13.204-13.204 30.72-20.48 49.368-20.48h1026.479c38.535 0 69.848 31.367 69.848 69.848v247.592h-1166.174zM62.68 29.992c-25.002 24.868-40.475 59.294-40.475 97.334 0 0.114 0 0.228 0 0.341v-0.018 640.701c0.092 76.3 61.936 138.125 138.234 138.186h1026.485c36.864 0 71.572-14.39 97.657-40.529 26.139-26.085 40.529-60.793 40.529-97.657v-640.701c0-36.864-14.39-71.572-40.529-97.657-24.873-25.034-59.32-40.529-97.387-40.529-0.095 0-0.19 0-0.285 0h-1026.464c-0.096 0-0.21 0-0.324 0-38.067 0-72.514 15.495-97.38 40.522l-0.007 0.007zM200.92 196.635c-5.854 5.795-9.479 13.833-9.479 22.717s3.625 16.922 9.477 22.714l0.003 0.003c5.791 5.826 13.809 9.432 22.67 9.432 0.026 0 0.052 0 0.078 0h290.219c0.048 0 0.105 0 0.162 0 17.651 0 31.96-14.309 31.96-31.96 0-0.076 0-0.152-0.001-0.228v0.012c-0.031-17.728-14.394-32.091-32.118-32.121h-290.226c-0.029 0-0.063 0-0.096 0-8.854 0-16.865 3.606-22.645 9.43l-0.002 0.002zM656.707 198.144c-5.473 5.406-8.863 12.911-8.863 21.208s3.39 15.801 8.86 21.205l0.003 0.003c5.385 5.394 12.83 8.731 21.054 8.731 0.045 0 0.089 0 0.134 0h67.685c0.048 0 0.105 0 0.162 0 16.46 0 29.804-13.344 29.804-29.804 0-0.057 0-0.114 0-0.171v0.009c0-0.048 0-0.105 0-0.162 0-16.46-13.344-29.804-29.804-29.804-0.057 0-0.114 0-0.171 0h-67.683c-0.015 0-0.033 0-0.051 0-8.258 0-15.731 3.358-21.129 8.784l-0.001 0.001z" />
<glyph unicode="&#xe925;" glyph-name="pay-card" horiz-adv-x="2176" d="M2040.64 497.344h-834.432l-9.344 8.064c-31.684 27.522-73.333 44.31-118.903 44.352h-158.665v109.696h1121.344v-162.112zM838.272 18.368h-210.048l32.384 50.944c11.712 18.432 21.376 38.144 28.8 58.688l7.936 21.888h140.928v-131.52zM2040.64 18.368h-1121.28v131.52h158.592c100.614 0.073 182.163 81.599 182.272 182.198v35.466c0 3.904-0.192 8.192-0.512 13.184l-2.688 35.584h783.616v-397.952zM2081.152-62.72c22.36 0.036 40.476 18.152 40.512 40.509v722.179c-0.036 22.36-18.152 40.476-40.509 40.512h-831.043l-238.208 156.416c-57.472 37.76-149.056 63.104-227.904 63.104-14.976 0-29.248-0.96-42.24-2.816l-706.944-100.992c-10.984-1.573-20.373-7.389-26.613-15.704l-0.075-0.104c-5.061-6.658-8.108-15.088-8.108-24.229 0-2.065 0.155-4.093 0.455-6.074l-0.028 0.223c3.030-19.747 19.898-34.695 40.258-34.695 1.986 0 3.938 0.142 5.848 0.417l-0.218-0.026 706.944 100.992c9.216 1.28 19.456 1.92 30.4 1.92 62.528 0 139.776-20.864 183.68-49.728l135.168-88.704h-223.808c-22.36-0.036-40.476-18.152-40.512-40.509v-150.211h-291.648c-21.705-0.889-38.965-18.701-38.965-40.544s17.259-39.655 38.885-40.541l0.080-0.003h531.392c55.808 0 101.248-45.376 101.248-101.12v-35.456c0-55.808-45.44-101.184-101.248-101.184h-414.72c-0.376 0.013-0.819 0.020-1.263 0.020-20.297 0-36.982-15.463-38.917-35.252l-0.013-0.161-0.192-1.536c-6.216-34.945-19.693-65.941-38.857-92.571l0.457 0.667c-39.808-55.552-101.952-83.712-184.64-83.712-140.8 0-339.648 95.232-341.632 96.256-5.17 2.585-11.264 4.098-17.711 4.098-15.94 0-29.72-9.25-36.264-22.675l-0.105-0.239c-2.577-5.154-4.086-11.229-4.086-17.656 0-4.797 0.84-9.398 2.382-13.664l-0.088 0.28c3.52-10.24 10.88-18.432 20.608-23.104 8.832-4.288 217.472-104.32 376.896-104.32h1681.344z" />
<glyph unicode="&#xe926;" glyph-name="pay-money" d="M964.565 267.136h-150.187c-29.856 0.073-54.034 24.281-54.059 54.142v0.002c0 29.824 24.235 54.101 54.101 54.101h150.187v-108.245zM746.539 710.613l-55.637 94.165 91.349 56.661 91.947-150.827h-127.659zM281.045 710.613l295.253 179.456 50.816-86.016 0.384-0.853c1.078-2.576 2.41-4.798 4.011-6.797l-0.043 0.055 0.597-0.725 50.304-85.12h-401.365zM109.355 710.613c-29.301 0.198-53.092 23.511-54.056 52.605l-0.002 0.089v0.683c0.944 29.2 24.744 52.537 54.039 52.736h239.976l-174.72-106.112h-65.237zM957.568 682.027l-2.133 1.579-140.459 230.4c-4.966 7.964-13.666 13.194-23.59 13.227h-0.005c-5.392-0.009-10.419-1.565-14.663-4.248l0.113 0.067-114.048-70.699-53.12 89.899c-4.934 8.153-13.739 13.528-23.802 13.568h-0.006c-5.299-0.001-10.25-1.493-14.456-4.079l0.12 0.069-140.672-85.504-6.485 3.072c-3.454 1.696-7.518 2.688-11.814 2.688-0.002 0-0.003 0-0.005 0h-303.189c-50.859 0-94.592-34.56-106.368-84.053l-0.299-1.109-0.427-1.067c-1.429-3.211-2.261-6.957-2.261-10.898 0-0.009 0-0.017 0-0.026v0.001-688.64c0.073-82.949 67.284-150.175 150.22-150.272h0.009v55.253c-52.425 0.073-94.903 42.552-94.976 94.969v581.639l17.664-6.272c11.691-4.139 23.979-6.229 36.437-6.229h760.235c52.395 0 94.976-42.667 94.976-95.019v-129.707h-150.187c-60.381-0.073-109.306-49.013-109.355-109.393v-0.005c0.073-60.381 49.013-109.306 109.393-109.355h177.796c15.232 0 27.605 12.373 27.605 27.648v320.853c0 47.872-23.253 93.397-62.293 121.643zM150.187-64h719.36c82.967 0.049 150.218 67.269 150.315 150.22v166.409h-55.253v-166.4c-0.049-52.449-42.566-94.952-95.016-94.976h-719.405c-40.96 0 8.405-55.253 0-55.253z" />
</font>
</defs>
</svg>
