<svg xmlns="http://www.w3.org/2000/svg" width="19" height="14" viewBox="0 0 19 14">
    <g fill="#000" fill-rule="nonzero">
        <path d="M1.545 7.152a10.938 10.938 0 0 0 1.772 2.583c1.6 1.728 3.61 2.757 6.083 2.757 2.473 0 4.484-1.029 6.083-2.757a10.938 10.938 0 0 0 1.772-2.583 11.558 11.558 0 0 0-1.78-2.744C13.874 2.586 11.866 1.5 9.4 1.5S4.925 2.585 3.326 4.409a11.558 11.558 0 0 0-1.78 2.743zm7.855 6.34c-2.777 0-5.041-1.159-6.817-3.077A11.93 11.93 0 0 1 1.037 8.32a8.525 8.525 0 0 1-.5-.973.5.5 0 0 1-.003-.372c.022-.057.064-.156.126-.291A12.549 12.549 0 0 1 2.574 3.75C4.35 1.724 6.617.5 9.4.5c2.783 0 5.05 1.225 6.826 3.25a12.549 12.549 0 0 1 1.914 2.935c.062.135.104.234.126.291a.5.5 0 0 1-.004.372 8.525 8.525 0 0 1-.499.973 11.93 11.93 0 0 1-1.546 2.094c-1.776 1.918-4.04 3.077-6.817 3.077z"/>
        <path d="M9.4 9.897a2.9 2.9 0 0 1-2.9-2.899 2.9 2.9 0 0 1 5.8 0 2.9 2.9 0 0 1-2.9 2.899zm0-1a1.9 1.9 0 0 0 1.9-1.899 1.9 1.9 0 0 0-3.8 0 1.9 1.9 0 0 0 1.9 1.899z"/>
    </g>
</svg>
