<svg xmlns="http://www.w3.org/2000/svg" width="34" height="16" viewBox="0 0 34 16">
    <path fill="#000" fill-rule="evenodd" d="M31.885 7.229H18.847l-.146-.126a2.844 2.844 0 0 0-1.858-.693h-2.479V4.696h17.521v2.533zm-18.787 7.484H9.816l.506-.796c.183-.288.334-.596.45-.917l.124-.342h2.202v2.055zm18.787 0h-17.52v-2.055h2.478a2.85 2.85 0 0 0 2.848-2.847v-.554c0-.061-.003-.128-.008-.206l-.042-.556h12.244v6.218zm.633 1.267a.634.634 0 0 0 .633-.633V4.063a.634.634 0 0 0-.633-.633H19.533L15.811.986C14.913.396 13.482 0 12.25 0c-.234 0-.457.015-.66.044L.544 1.622a.628.628 0 0 0-.417.247.629.629 0 0 0-.12.47.636.636 0 0 0 .717.536L11.77 1.297c.144-.02.304-.03.475-.03.977 0 2.184.326 2.87.777l2.112 1.386H13.73a.634.634 0 0 0-.633.633V6.41H8.54a.634.634 0 0 0 0 1.267h8.303c.872 0 1.582.709 1.582 1.58v.554c0 .872-.71 1.581-1.582 1.581h-6.48a.611.611 0 0 0-.628.553l-.003.024a3.51 3.51 0 0 1-.6 1.436c-.622.868-1.593 1.308-2.885 1.308-2.2 0-5.307-1.488-5.338-1.504a.63.63 0 0 0-.845.294.628.628 0 0 0-.028.485c.055.16.17.288.322.361.138.067 3.398 1.63 5.889 1.63h26.271z"/>
</svg>
