<svg xmlns="http://www.w3.org/2000/svg" width="21" height="14" viewBox="0 0 21 14">
    <g fill="#FFF" fill-rule="nonzero">
        <path d="M19.115 6.542l-2.853-.377-1.643-2.853c-.43-.781-1.265-1.239-2.154-1.239H9.342a.54.54 0 0 0-.538.539V8.83H1.508a.54.54 0 0 0-.539.538v1.67a.54.54 0 0 0 .539.538h1.05a2.463 2.463 0 0 0 2.45 2.261 2.463 2.463 0 0 0 2.45-2.261h6.057a2.463 2.463 0 0 0 2.45 2.261 2.463 2.463 0 0 0 2.45-2.261h.566c.592 0 1.104-.485 1.104-1.104V7.646a1.153 1.153 0 0 0-.97-1.104zM5.008 12.708a1.293 1.293 0 0 1-1.293-1.293c0-.7.593-1.292 1.293-1.292.727 0 1.292.592 1.292 1.292 0 .7-.592 1.293-1.292 1.293zm9.234-6.623h-3.554a.116.116 0 0 1-.107-.108V3.715c0-.053.054-.107.107-.107h1.777c.35 0 .647.188.808.484l1.05 1.858c.054.054 0 .135-.08.135zm1.696 6.623a1.293 1.293 0 0 1-1.292-1.293c0-.7.592-1.292 1.292-1.292.7 0 1.293.592 1.293 1.292 0 .7-.566 1.293-1.293 1.293z"/>
        <path d="M8.023 7.512V.673a.54.54 0 0 0-.538-.538H.538A.54.54 0 0 0 0 .673v6.839a.54.54 0 0 0 .538.538h6.947a.54.54 0 0 0 .538-.538z"/>
    </g>
</svg>
