<svg xmlns="http://www.w3.org/2000/svg" xmlns:xlink="http://www.w3.org/1999/xlink" width="24" height="24" viewBox="0 0 24 24">
    <defs>
        <path id="a" d="M0 .098h23.902V24H0z"/>
        <path id="c" d="M.031.028H20.8v7.42H.03z"/>
    </defs>
    <g fill="none" fill-rule="evenodd">
        <g>
            <mask id="b" fill="#fff">
                <use xlink:href="#a"/>
            </mask>
            <path fill="#000" d="M22.607 16.239h-3.52a1.27 1.27 0 0 1-1.267-1.269c0-.699.568-1.268 1.268-1.268h3.52v2.537zm-5.11-10.394l-1.304-2.207 2.141-1.328 2.155 3.535h-2.992zm-10.91 0l6.92-4.206 1.191 2.016.009.02a.656.656 0 0 0 .093.158l.014.017 1.179 1.995H6.586zm-4.024 0A1.276 1.276 0 0 1 1.296 4.61v-.016a1.276 1.276 0 0 1 1.267-1.236h5.624L4.092 5.845H2.563zm19.88.67l-.05-.037-3.292-5.4a.652.652 0 0 0-.553-.31.646.646 0 0 0-.341.098l-2.673 1.657L14.289.416a.653.653 0 0 0-.558-.318.648.648 0 0 0-.336.094l-3.297 2.004-.152-.072a.64.64 0 0 0-.277-.063H2.563c-1.192 0-2.217.81-2.493 1.97l-.007.026-.01.025A.642.642 0 0 0 0 4.338v16.14A3.525 3.525 0 0 0 3.521 24v-1.295a2.229 2.229 0 0 1-2.226-2.226V6.847l.414.147c.274.097.562.146.854.146h17.818c1.228 0 2.226 1 2.226 2.227v3.04h-3.52a2.566 2.566 0 0 0-2.563 2.564 2.566 2.566 0 0 0 2.564 2.563h4.07l.05-.003.047.003c.357 0 .647-.29.647-.648v-7.52c0-1.122-.545-2.189-1.46-2.851z" mask="url(#b)"/>
        </g>
        <g transform="translate(3.103 16.552)">
            <mask id="d" fill="#fff">
                <use xlink:href="#c"/>
            </mask>
            <path fill="#000" d="M.417 7.448h16.86A3.525 3.525 0 0 0 20.8 3.927v-3.9h-1.295v3.9a2.228 2.228 0 0 1-2.227 2.226H.417c-.96 0 .197 1.295 0 1.295" mask="url(#d)"/>
        </g>
    </g>
</svg>
