<svg xmlns="http://www.w3.org/2000/svg" xmlns:xlink="http://www.w3.org/1999/xlink" width="192" height="16" viewBox="0 0 192 16">
    <defs>
        <path id="a" d="M.02.006h12.577V12.89H.02z"/>
    </defs>
    <g fill="none" fill-rule="evenodd">
        <path fill="#000" d="M0 .197V14.02h3.057V3.101h6.725V14.02h3.057V.197zM49.304 8.276c.808-.327 1.398-1.222 1.398-2.074 0-2.293-2.533-3.384-5.306-3.384-2.511 0-4.127.83-5.525 1.703L41.27 6.77c1.07-.896 2.249-1.529 4.127-1.529 1.725 0 2.554.459 2.554 1.048 0 .546-.35 1.027-1.637 1.027h-2.86v2.292h2.86c1.07 0 1.921.153 1.921.983 0 .895-.939 1.245-2.707 1.245-1.878 0-3.385-1.005-4.193-1.747l-1.681 2.118c1.223 1.004 3.253 2.052 5.874 2.052 3.253 0 5.524-1.179 5.524-3.646 0-1.201-.808-1.987-1.747-2.337"/>
        <g transform="translate(66.578 3.095)">
            <mask id="b" fill="#fff">
                <use xlink:href="#a"/>
            </mask>
            <path fill="#000" d="M5.348 2.452h3.1V8.39H4.163c.735-1.594 1.062-3.503 1.185-5.94zm5.72-2.446H2.772V1.47c0 3.143-.42 5.273-1.522 6.922H.019v4.498h2.534v-1.965h7.533v1.965h2.511V8.39h-1.528V.006z" mask="url(#b)"/>
        </g>
        <path fill="#000" d="M28.19 14.019h9.585v-2.533h-7.01V9.652h5.329V7.316h-5.328V5.634h7.01v-2.62h-9.587zM61.576 4.433l-5 4.957V3.1l-2.621-.043v10.961h2.62v-1.376l5-4.978v6.354h2.62V3.101h-2.62zM18.494 9.172V5.59h3.036c1.332 0 2.052.742 2.052 1.834 0 2.074-2.118 2.576-5.088 1.747m3.123-6.07H15.94v10.917h2.554v-2.424c4.324 1.048 7.6-.458 7.6-4.214 0-2.642-1.835-4.28-4.477-4.28M101.84 7.272h-5v-4.17h-2.62v10.917h2.62V9.696h5v4.323h2.62V3.101h-2.62zM163.523 8.131c-.568.572-1.426.997-2.664.997-1.55 0-2.315-.568-2.315-1.616v-4.41h-2.62v4.454c0 2.642 1.944 3.996 4.935 3.996 1.005 0 1.904-.271 2.664-.675v3.142h2.642V3.101h-2.642v5.03zM169.31 14.019h9.585v-2.533h-6.965V9.652h5.306V7.316h-5.306V5.634h6.965V3.101h-9.586zM144.286 5.59h3.778v8.429h2.598V5.591h3.777V3.1h-10.153zM81.795 14.019h9.607v-2.533h-6.987V9.652h5.306V7.316h-5.306V5.634h6.987V3.101h-9.607zM186.406 11.726c-1.856 0-3.057-1.31-3.057-3.166 0-1.856 1.201-3.144 3.057-3.144 1.441 0 2.49.742 2.926 1.943l2.446-.742c-.874-2.336-2.86-3.734-5.372-3.734-3.253 0-5.677 2.446-5.677 5.677 0 3.188 2.358 5.677 5.677 5.677 2.49 0 4.52-1.397 5.372-3.733l-2.446-.721c-.436 1.18-1.485 1.943-2.926 1.943M106.425 5.59h3.756v8.429h2.642V5.591h3.777V3.1h-10.175zM126.206 5.743h-4.716V2.708h4.716c1.005 0 1.725.524 1.725 1.485 0 .917-.59 1.55-1.725 1.55m-.545 5.721h-4.171v-3.21h4.17c1.07 0 1.813.503 1.813 1.616 0 1.18-.743 1.594-1.812 1.594m5.284-7.533c0-2.096-1.682-3.887-4.236-3.887h-8.123V14.02h7.075c2.576 0 4.541-1.638 4.541-4.214 0-1.572-.83-2.25-1.375-2.555 1.004-.371 2.118-1.42 2.118-3.319M138.041 11.726c-1.834 0-3.079-1.31-3.079-3.166 0-1.856 1.245-3.144 3.08-3.144 1.811 0 3.056 1.288 3.056 3.144s-1.245 3.166-3.057 3.166m0-8.843c-3.319 0-5.72 2.511-5.72 5.677 0 3.21 2.467 5.677 5.72 5.677 3.254 0 5.677-2.423 5.677-5.677 0-3.253-2.423-5.677-5.677-5.677"/>
    </g>
</svg>
