<svg xmlns="http://www.w3.org/2000/svg" xmlns:xlink="http://www.w3.org/1999/xlink" width="150" height="13" viewBox="0 0 150 13">
    <defs>
        <path id="a" d="M.015.005h9.783v10.02H.015z"/>
    </defs>
    <g fill="none" fill-rule="evenodd">
        <path fill="#000" d="M0 .153v10.75h2.378v-8.49h5.23v8.49h2.378V.154zM38.348 6.437c.628-.255 1.087-.95 1.087-1.613 0-1.783-1.97-2.633-4.127-2.633-1.953 0-3.21.646-4.297 1.325l1.087 1.75c.832-.697 1.75-1.19 3.21-1.19 1.341 0 1.987.357 1.987.816 0 .424-.272.798-1.274.798h-2.225v1.783h2.225c.832 0 1.494.119 1.494.764 0 .697-.73.968-2.105.968-1.461 0-2.633-.78-3.261-1.358L30.84 9.494c.951.781 2.53 1.596 4.569 1.596 2.53 0 4.296-.917 4.296-2.836 0-.934-.628-1.545-1.358-1.817"/>
        <g transform="translate(51.783 2.407)">
            <mask id="b" fill="#fff">
                <use xlink:href="#a"/>
            </mask>
            <path fill="#000" d="M4.16 1.907h2.41v4.62H3.239c.571-1.24.826-2.725.921-4.62zM8.608.005H2.155v1.138c0 2.444-.326 4.1-1.184 5.383H.015v3.499h1.97V8.496h5.86v1.529h1.953V6.526h-1.19V.005z" mask="url(#b)"/>
        </g>
        <path fill="#000" d="M21.925 10.904h7.456v-1.97h-5.452V7.507h4.144V5.69h-4.144V4.382h5.452V2.344h-7.456zM47.892 3.448l-3.89 3.855v-4.89l-2.037-.035v8.526h2.038v-1.07l3.89-3.872v4.942h2.037V2.412h-2.038zM14.385 7.133V4.348h2.36c1.036 0 1.597.578 1.597 1.427 0 1.613-1.648 2.004-3.957 1.358m2.428-4.72h-4.415v8.49h1.987V9.02c3.362.815 5.91-.357 5.91-3.278 0-2.055-1.427-3.329-3.482-3.329M79.209 5.656h-3.89V2.412h-2.037v8.492h2.038V7.54h3.889v3.363h2.038V2.412h-2.038zM127.184 6.324c-.441.445-1.109.776-2.071.776-1.206 0-1.8-.442-1.8-1.257v-3.43h-2.039v3.464c0 2.055 1.512 3.108 3.839 3.108.781 0 1.48-.211 2.071-.525v2.444h2.055V2.412h-2.055v3.912zM131.685 10.904h7.456v-1.97h-5.418V7.507h4.127V5.69h-4.127V4.382h5.418v-1.97h-7.456zM112.222 4.348h2.939v6.556h2.02V4.348h2.939V2.412h-7.898zM63.618 10.904h7.473v-1.97h-5.435V7.507h4.127V5.69h-4.127V4.382h5.435v-1.97h-7.473zM144.983 9.12c-1.444 0-2.378-1.019-2.378-2.462 0-1.444.934-2.446 2.378-2.446 1.12 0 1.936.578 2.275 1.512l1.902-.578c-.679-1.817-2.224-2.904-4.177-2.904-2.53 0-4.416 1.902-4.416 4.416 0 2.48 1.834 4.416 4.416 4.416 1.936 0 3.515-1.087 4.177-2.905l-1.902-.56c-.34.917-1.154 1.511-2.275 1.511M82.775 4.348h2.921v6.556h2.055V4.348h2.938V2.412h-7.914zM98.16 4.467h-3.668V2.106h3.669c.78 0 1.341.408 1.341 1.155 0 .714-.458 1.206-1.341 1.206m-.425 4.45h-3.244V6.42h3.244c.832 0 1.41.39 1.41 1.257 0 .917-.578 1.24-1.41 1.24m4.11-5.86c0-1.63-1.308-3.022-3.295-3.022h-6.318v10.869h5.503c2.004 0 3.532-1.274 3.532-3.278 0-1.223-.645-1.75-1.07-1.987.782-.289 1.648-1.104 1.648-2.581M107.365 9.12c-1.426 0-2.394-1.019-2.394-2.462 0-1.444.968-2.446 2.394-2.446 1.41 0 2.378 1.002 2.378 2.446 0 1.443-.968 2.462-2.378 2.462m0-6.878c-2.581 0-4.45 1.953-4.45 4.416 0 2.496 1.92 4.416 4.45 4.416 2.53 0 4.416-1.886 4.416-4.416 0-2.53-1.885-4.416-4.416-4.416"/>
    </g>
</svg>
