<?xml version="1.0" encoding="UTF-8" standalone="no"?>
<svg
   xmlns:dc="http://purl.org/dc/elements/1.1/"
   xmlns:cc="http://creativecommons.org/ns#"
   xmlns:rdf="http://www.w3.org/1999/02/22-rdf-syntax-ns#"
   xmlns:svg="http://www.w3.org/2000/svg"
   xmlns="http://www.w3.org/2000/svg"
   viewBox="0 0 6666.6665 2000"
   height="2000"
   width="6666.6665"
   xml:space="preserve"
   id="svg2"
   version="1.1"><metadata
     id="metadata8"><rdf:RDF><cc:Work
         rdf:about=""><dc:format>image/svg+xml</dc:format><dc:type
           rdf:resource="http://purl.org/dc/dcmitype/StillImage" /></cc:Work></rdf:RDF></metadata><defs
     id="defs6"><clipPath
       id="clipPath22"
       clipPathUnits="userSpaceOnUse"><path
         id="path20"
         d="M 0,1500 H 5000 V 0 H 0 Z" /></clipPath></defs><g
     transform="matrix(1.3333333,0,0,-1.3333333,0,2000)"
     id="g10"><g
       transform="translate(341,676.2168)"
       id="g12"><path
         id="path14"
         style="fill:#000000;fill-opacity:1;fill-rule:nonzero;stroke:none"
         d="M 0,0 H 68.781 V 245.646 H 220.1 V 0 h 68.781 V 310.988 H 0 Z" /></g><g
       id="g16"><g
         clip-path="url(#clipPath22)"
         id="g18"><g
           transform="translate(1450.3418,805.4268)"
           id="g24"><path
             id="path26"
             style="fill:#000000;fill-opacity:1;fill-rule:nonzero;stroke:none"
             d="m 0,0 c 18.178,7.369 31.443,27.513 31.443,46.673 0,51.586 -56.99,76.15 -119.384,76.15 -56.499,0 -92.855,-18.669 -124.298,-38.32 l 31.443,-50.604 c 24.073,20.143 50.603,34.391 92.855,34.391 38.812,0 57.481,-10.317 57.481,-23.582 0,-12.283 -7.861,-23.091 -36.847,-23.091 h -64.36 v -51.586 h 64.36 c 24.073,0 43.234,-3.439 43.234,-22.108 0,-20.143 -21.126,-28.004 -60.921,-28.004 -42.251,0 -76.151,22.6 -94.328,39.304 l -37.83,-47.656 c 27.512,-22.599 73.203,-46.181 132.158,-46.181 73.203,0 124.298,26.529 124.298,82.046 C 39.304,-25.548 21.125,-7.86 0,0" /></g><g
           transform="translate(1959.3223,866.8379)"
           id="g28"><path
             id="path30"
             style="fill:#000000;fill-opacity:1;fill-rule:nonzero;stroke:none"
             d="M 0,0 H 69.764 V -133.631 H -26.663 C -10.126,-97.77 -2.758,-54.817 0,0 M 128.719,55.025 H -57.973 V 22.109 c 0,-70.711 -9.436,-118.64 -34.249,-155.74 h -27.653 v -101.207 h 56.989 v 44.217 h 169.497 v -44.217 h 56.498 v 101.207 h -34.39 z" /></g><g
           transform="translate(975.2607,676.2168)"
           id="g32"><path
             id="path34"
             style="fill:#000000;fill-opacity:1;fill-rule:nonzero;stroke:none"
             d="M 0,0 H 215.678 V 56.99 H 57.973 v 41.269 h 119.875 v 52.568 H 57.973 v 37.829 h 157.705 v 58.955 H 0 Z" /></g><g
           transform="translate(1726.4492,891.8945)"
           id="g36"><path
             id="path38"
             style="fill:#000000;fill-opacity:1;fill-rule:nonzero;stroke:none"
             d="M 0,0 -112.507,-111.523 V 29.969 l -58.955,0.982 v -246.629 h 58.955 v 30.951 L 0,-72.711 V -215.678 H 58.955 V 29.969 L 0,29.969 Z" /></g><g
           transform="translate(757.126,785.2832)"
           id="g40"><path
             id="path42"
             style="fill:#000000;fill-opacity:1;fill-rule:nonzero;stroke:none"
             d="m 0,0 v 80.572 h 68.29 c 29.969,0 46.182,-16.703 46.182,-41.268 C 114.472,-7.369 66.816,-18.669 0,0 M 70.255,136.58 H -57.481 V -109.066 H 0 v 54.533 c 97.276,-23.582 170.97,10.317 170.97,94.82 0,59.446 -41.268,96.293 -100.715,96.293" /></g><g
           transform="translate(2632.3945,828.0264)"
           id="g44"><path
             id="path46"
             style="fill:#000000;fill-opacity:1;fill-rule:nonzero;stroke:none"
             d="m 0,0 h -112.506 v 93.837 h -58.955 V -151.81 h 58.955 v 97.276 H 0 V -151.81 H 58.956 V 93.837 L 0,93.837 Z" /></g><g
           transform="translate(4020.2656,808.6953)"
           id="g48"><path
             id="path50"
             style="fill:#000000;fill-opacity:1;fill-rule:nonzero;stroke:none"
             d="m 0,0 c -12.771,-12.862 -32.082,-22.429 -59.938,-22.429 -34.882,0 -52.078,12.774 -52.078,36.356 v 99.241 h -58.955 V 12.944 c 0,-59.446 43.726,-89.907 111.033,-89.907 22.605,0 42.838,6.096 59.938,15.182 v -70.698 H 59.446 V 113.168 H 0 Z" /></g><g
           transform="translate(4150.459,676.2168)"
           id="g52"><path
             id="path54"
             style="fill:#000000;fill-opacity:1;fill-rule:nonzero;stroke:none"
             d="M 0,0 H 215.678 V 56.99 H 58.955 V 98.259 H 178.34 v 52.568 H 58.955 v 37.829 h 156.723 v 56.99 L 0,245.646 Z" /></g><g
           transform="translate(3587.4355,865.8555)"
           id="g56"><path
             id="path58"
             style="fill:#000000;fill-opacity:1;fill-rule:nonzero;stroke:none"
             d="m 0,0 h 84.994 v -189.639 h 58.464 V 0 h 84.993 V 56.008 H 0 Z" /></g><g
           transform="translate(2181.3872,676.2168)"
           id="g60"><path
             id="path62"
             style="fill:#000000;fill-opacity:1;fill-rule:nonzero;stroke:none"
             d="M 0,0 H 216.169 V 56.99 H 58.955 v 41.269 h 119.384 v 52.568 H 58.955 v 37.829 h 157.214 v 56.99 L 0,245.646 Z" /></g><g
           transform="translate(4535.1416,727.8027)"
           id="g64"><path
             id="path66"
             style="fill:#000000;fill-opacity:1;fill-rule:nonzero;stroke:none"
             d="m 0,0 c -41.76,0 -68.781,29.478 -68.781,71.237 0,41.76 27.021,70.746 68.781,70.746 32.426,0 56.008,-16.704 65.833,-43.725 l 55.025,16.705 C 101.206,167.531 56.499,198.974 0,198.974 c -73.202,0 -127.736,-55.025 -127.736,-127.737 0,-71.729 53.059,-127.736 127.736,-127.736 56.008,0 101.698,31.442 120.858,84.011 L 65.833,43.725 C 56.008,17.195 32.426,0 0,0" /></g><g
           transform="translate(2735.5664,865.8555)"
           id="g68"><path
             id="path70"
             style="fill:#000000;fill-opacity:1;fill-rule:nonzero;stroke:none"
             d="m 0,0 h 84.503 v -189.639 h 59.446 V 0 h 84.994 V 56.008 H 0 Z" /></g><g
           transform="translate(3180.6445,862.417)"
           id="g72"><path
             id="path74"
             style="fill:#000000;fill-opacity:1;fill-rule:nonzero;stroke:none"
             d="M 0,0 H -106.119 V 0.491 68.29 H 0 C 22.6,68.29 38.813,56.499 38.813,34.882 38.813,14.247 25.547,0 0,0 m -12.283,-128.72 h -93.836 v 72.221 h 93.836 c 24.074,0 40.777,-11.3 40.777,-36.355 0,-26.531 -16.703,-35.866 -40.777,-35.866 M 106.61,40.777 c 0,47.164 -37.829,87.451 -95.31,87.451 H -171.462 V -186.2 h 159.179 c 57.972,0 102.189,36.846 102.189,94.819 0,35.373 -18.669,50.604 -30.951,57.482 22.6,8.351 47.655,31.933 47.655,74.676" /></g><g
           transform="translate(3446.9258,727.8027)"
           id="g76"><path
             id="path78"
             style="fill:#000000;fill-opacity:1;fill-rule:nonzero;stroke:none"
             d="m 0,0 c -41.27,0 -69.272,29.478 -69.272,71.237 0,41.76 28.002,70.746 69.272,70.746 40.777,0 68.781,-28.986 68.781,-70.746 C 68.781,29.478 40.777,0 0,0 m 0,198.974 c -74.677,0 -128.719,-56.499 -128.719,-127.737 0,-72.219 55.516,-127.736 128.719,-127.736 73.203,0 127.736,54.533 127.736,127.736 0,73.202 -54.533,127.737 -127.736,127.737" /></g></g></g></g></svg>