<svg xmlns="http://www.w3.org/2000/svg" width="41" height="42" viewBox="0 0 41 42">
    <g fill="#000" fill-rule="evenodd">
        <path d="M35.548 1.889H24.22a.733.733 0 0 0 0 1.466h11.328c1.476 0 3.04 1.565 3.04 3.04v9.44c0 1.825 0 2.656-.395 3.448-.42.837-1.337 1.754-3.166 3.584L18.037 39.85c-1.286 1.286-2.504.224-2.734 0L2.09 26.644c-.225-.233-1.29-1.453-.003-2.738l1.465-1.467L19.076 6.917a.732.732 0 0 0 0-1.04.733.733 0 0 0-1.04 0c-.592.595-11.479 11.481-15.52 15.524l-1.462 1.465c-.972.967-1.282 2.154-.887 3.346.279.846.823 1.408.887 1.466L14.265 40.89c.059.063.616.603 1.466.886.337.113.67.167 1.002.167.84 0 1.651-.355 2.343-1.053l16.988-16.984c3.84-3.84 3.99-3.994 3.99-8.071v-9.44c0-2.275-2.23-4.505-4.506-4.505"/>
        <path d="M29.883 15.1a3.044 3.044 0 0 1-3.04-3.039.737.737 0 0 0-.733-.738.736.736 0 0 0-.733.738 4.51 4.51 0 0 0 4.506 4.506 4.515 4.515 0 0 0 4.51-4.506 4.516 4.516 0 0 0-4.51-4.51.733.733 0 1 0 0 1.466 3.046 3.046 0 0 1 3.04 3.044 3.045 3.045 0 0 1-3.04 3.04"/>
        <path d="M7.232 14.681a.736.736 0 0 0 .715-.911C6.808 9.227 7.1 5.42 8.737 3.318c.964-1.226 2.358-1.85 4.156-1.85 4.398 0 13.383 8.02 16.471 11.11a.734.734 0 1 0 1.04-1.04C29.931 11.068 18.793 0 12.893 0c-2.24 0-4.08.836-5.311 2.415-1.947 2.496-2.325 6.656-1.062 11.71.081.333.383.556.711.556M23.26 25.637l-6.956-6.955 1.034-1.033 6.955 6.954zM20.769 28.128l-6.955-6.955 1.034-1.034 6.955 6.955z"/>
    </g>
</svg>
