<svg xmlns="http://www.w3.org/2000/svg" width="49" height="42" viewBox="0 0 49 42">
    <g fill="#000" fill-rule="evenodd">
        <path d="M10.277 36.992a.536.536 0 1 1 .535-.535c0 .294-.24.535-.535.535m0-2.584c-1.13 0-2.049.919-2.049 2.049s.919 2.05 2.049 2.05 2.048-.92 2.048-2.05-.919-2.05-2.048-2.05"/>
        <path d="M39.343 31.501a4.96 4.96 0 0 0-4.922 4.403c-3.54.01-7.081.026-10.561.04-2.854.013-5.75.026-8.653.035a4.96 4.96 0 0 0-4.93-4.478 4.96 4.96 0 0 0-4.932 4.5l-1.722.003a1.831 1.831 0 0 1-1.83-1.83v-.81H5.36V31.85H1.793V15.584c0-1 .824-1.82 1.835-1.829l15.38-.117h.178c6.296 0 11.82 2.585 15.977 7.475a11.847 11.847 0 0 0 3.93 3.012 7.426 7.426 0 0 0 7.032 5.028c.04 0 .08-.006.119-.006a6.4 6.4 0 0 1 .336 2.047v.656h-2.392v1.513h2.392v.049a2.47 2.47 0 0 1-2.319 2.458 4.961 4.961 0 0 0-4.918-4.369zm0 8.397a3.446 3.446 0 0 1-3.442-3.441 3.447 3.447 0 0 1 3.442-3.442 3.446 3.446 0 0 1 3.442 3.442 3.446 3.446 0 0 1-3.442 3.441zm-26.114.529a4.963 4.963 0 0 0 1.892-2.934c2.933-.01 5.861-.022 8.745-.035 3.499-.014 7.058-.03 10.617-.04a4.957 4.957 0 0 0 1.907 3.009H13.23zm-2.952-.529a3.446 3.446 0 0 1-3.442-3.441 3.446 3.446 0 0 1 3.442-3.442 3.446 3.446 0 0 1 3.44 3.442 3.446 3.446 0 0 1-3.44 3.441zm31.315-14.905a6.318 6.318 0 0 1 3.883 2.606 5.865 5.865 0 0 1-4.366-2.734c.162.042.32.092.483.128zm2.615 12.401a3.991 3.991 0 0 0 3.886-3.983v-2.218a7.813 7.813 0 0 0-6.175-7.68 10.306 10.306 0 0 1-5.602-3.381c-4.454-5.24-10.377-8.008-17.13-8.008l-15.57.117C1.778 12.255.28 13.755.28 15.584v18.59c0 1.843 1.5 3.343 3.343 3.343.6 0 1.209 0 1.816-.002a4.963 4.963 0 0 0 1.885 2.912H.264l.001 1.514h43.923v-1.514h-1.892a4.953 4.953 0 0 0 1.91-3.033z"/>
        <path d="M39.343 36.992a.536.536 0 1 1 .535-.535c0 .294-.24.535-.535.535m0-2.584c-1.13 0-2.049.919-2.049 2.049s.92 2.05 2.049 2.05c1.13 0 2.049-.92 2.049-2.05s-.92-2.05-2.049-2.05M15.517 33.363h18.558v-1.514H15.517zM24.487 15.196h-1.514v9.073h13.03v-1.514H24.486zM32.044 5.639a4.1 4.1 0 0 1 4.069-3.731 4.094 4.094 0 0 1 4.08 3.833l1.51-.095a5.555 5.555 0 0 0-.41-1.767c.103-.015.205-.033.31-.033.85 0 1.592.502 1.939 1.237V6.43H47.7V4.916h-2.597a3.67 3.67 0 0 0-3.5-2.584c-.383 0-.757.06-1.119.177A5.59 5.59 0 0 0 36.113.394c-2.692 0-4.981 1.939-5.49 4.522h-4.117V6.43h5.538v-.791zM4.302 8.404A2.488 2.488 0 0 1 6.619 6.42c.006.222.027.445.07.665l1.486-.294a2.475 2.475 0 0 1 2.424-2.959c.907 0 1.706.484 2.137 1.227a3.961 3.961 0 0 0-2.02 1.339l1.182.945a2.46 2.46 0 0 1 1.931-.928 2.475 2.475 0 0 1 2.472 2.473h.003v.757h4.125V8.13h-2.687a3.993 3.993 0 0 0-3.397-3.192A3.969 3.969 0 0 0 10.6 2.318a3.99 3.99 0 0 0-3.73 2.595c-.049-.002-.097-.011-.145-.011A3.992 3.992 0 0 0 2.811 8.13H.769v1.514h3.533v-1.24z"/>
    </g>
</svg>
