<svg xmlns="http://www.w3.org/2000/svg" width="15" height="14" viewBox="0 0 15 14">
    <path fill="#FFF" fill-rule="evenodd" d="M14.111 10.482v2.107a1.404 1.404 0 0 1-1.534 1.405 13.948 13.948 0 0 1-6.075-2.157A13.713 13.713 0 0 1 2.28 7.622a13.885 13.885 0 0 1-2.161-6.09A1.403 1.403 0 0 1 1.518 0H3.63a1.407 1.407 0 0 1 1.408 1.208c.09.675.254 1.337.493 1.974.193.514.07 1.093-.317 1.483l-.894.892a11.252 11.252 0 0 0 4.223 4.215l.894-.892c.391-.386.971-.51 1.486-.316a9.053 9.053 0 0 0 1.978.491c.708.1 1.228.713 1.21 1.427z"/>
</svg>
