<svg xmlns="http://www.w3.org/2000/svg" width="22" height="16" viewBox="0 0 22 16">
    <path fill="#000" fill-rule="nonzero" d="M13.881 2.177v2.46l-.377.095C8.315 6.045 4.17 8.558 2.168 12.489c1.937-1.29 4.187-2.135 6.615-2.612a22.83 22.83 0 0 1 3.156-.394 15.682 15.682 0 0 1 1.465-.021l.477.022v2.548l6.307-4.928-6.307-4.927zm-1 1.683V.127l8.931 6.977-8.931 6.978V10.45c-.976-.003-2.36.105-3.905.409-2.924.574-5.564 1.705-7.647 3.526l-1.364 1.193.56-1.723C2.21 8.66 6.873 5.462 12.88 3.86z"/>
</svg>
