<svg xmlns="http://www.w3.org/2000/svg" width="35" height="42" viewBox="0 0 35 42">
    <g fill="#000" fill-rule="evenodd">
        <path d="M14.827 1.622h17.998c.382 0 .692.31.692.692v28.382c0 .383-.31.692-.692.692H17.111a9.995 9.995 0 0 0 1.22-6.682v-.02l5.431-6.004c.488-.57.756-1.294.756-2.044v-.108a3.14 3.14 0 0 0-5.36-2.22l-5.023 5.024V2.314c0-.382.31-.692.692-.692zM1.674 34.147c0-.397.049-.792.145-1.177l3.715-14.857c.131-.526.464-.979.926-1.261l.059-.04 6.23-4.784v8.69l-2.566 2.567.978.978 8.976-8.974a1.756 1.756 0 0 1 2.997 1.241v.108c0 .413-.145.813-.41 1.128l-5.642 6.235a.693.693 0 0 0-.17.57l.052.346c.692 4.507-1.862 8.42-6.506 9.968l.437 1.316a11.608 11.608 0 0 0 5.23-3.428h4.985l-2.606 3.723a7.573 7.573 0 0 1-3.564 2.763l-3.126 1.172a.692.692 0 0 0-.448.649v.692h1.384v-.212l2.677-1.004a8.966 8.966 0 0 0 4.213-3.266l3.162-4.517h10.023c1.147 0 2.077-.93 2.077-2.077V2.314c0-1.147-.93-2.076-2.077-2.076H14.827c-1.147 0-2.077.93-2.077 2.076v7.966l-7.048 5.41A3.442 3.442 0 0 0 4.19 17.78L.476 32.634a6.237 6.237 0 0 0-.186 1.513v7.625h1.384v-7.625z"/>
        <path d="M27.98 4.391a2.076 2.076 0 1 1 0 4.153 2.076 2.076 0 0 1 0-4.153m0 7.615a2.058 2.058 0 0 1-1.974-2.7 3.43 3.43 0 0 0 3.946 0 2.058 2.058 0 0 1-1.973 2.7m0 1.384a3.455 3.455 0 0 0 2.986-5.204 3.42 3.42 0 0 0 .476-1.718 3.461 3.461 0 0 0-6.923 0 3.42 3.42 0 0 0 .475 1.718 3.455 3.455 0 0 0 2.986 5.204M15.52 14.774h1.384V4.391h-1.385zM27.98 29.311h1.384V17.816h-1.385zM30.748 29.312h1.385V15.467h-1.385z"/>
    </g>
</svg>
