<svg xmlns="http://www.w3.org/2000/svg" width="25" height="19" viewBox="0 0 25 19">
    <path fill="#000" fill-rule="evenodd" d="M22.94 2.64a1.287 1.287 0 0 0-.917-.38H2.977c-.715 0-1.296.581-1.296 1.296v1.73h21.638v-1.73c0-.346-.135-.671-.38-.916zM1.68 6.555v3.027h21.638V6.555H1.68zm0 4.295v4.594c0 .346.135.67.38.916.245.245.57.38.916.38h19.046c.715 0 1.296-.582 1.296-1.296V10.85H1.68zm-.517 6.406a2.547 2.547 0 0 1-.751-1.812V3.556A2.567 2.567 0 0 1 2.977.992h19.046c.684 0 1.328.267 1.812.752.485.484.752 1.128.752 1.812v11.888c0 .684-.267 1.328-.752 1.812a2.547 2.547 0 0 1-1.812.752H2.977a2.547 2.547 0 0 1-1.813-.752zm2.565-3.092a.593.593 0 0 1 0-.843.593.593 0 0 1 .422-.175h5.385a.593.593 0 0 1 .596.597.597.597 0 0 1-.596.596H4.15a.592.592 0 0 1-.422-.175zm8.457-.028a.553.553 0 0 1 0-.787.552.552 0 0 1 .393-.162h1.256a.553.553 0 0 1 .556.556.553.553 0 0 1-.556.556h-1.256a.553.553 0 0 1-.393-.163z"/>
</svg>
